<mxfile host="app.diagrams.net" modified="2024-07-08T02:48:19.042Z" agent="Mozilla/5.0 (Windows NT 10.0; Win64; x64) AppleWebKit/537.36 (KHTML, like Gecko) Chrome/126.0.0.0 Safari/537.36" etag="eLvXiZVA3JMtUl8ufVu_" version="24.6.4" type="github">
  <diagram id="C5RBs43oDa-KdzZeNtuy" name="Page-1">
    <mxGraphModel dx="1420" dy="724" grid="1" gridSize="10" guides="1" tooltips="1" connect="1" arrows="1" fold="1" page="1" pageScale="1" pageWidth="827" pageHeight="1169" math="0" shadow="0">
      <root>
        <mxCell id="WIyWlLk6GJQsqaUBKTNV-0" />
        <mxCell id="WIyWlLk6GJQsqaUBKTNV-1" parent="WIyWlLk6GJQsqaUBKTNV-0" />
        <mxCell id="lY5XYDzgjmcaLU_27s-w-31" style="edgeStyle=orthogonalEdgeStyle;rounded=0;orthogonalLoop=1;jettySize=auto;html=1;entryX=0.5;entryY=0;entryDx=0;entryDy=0;" edge="1" parent="WIyWlLk6GJQsqaUBKTNV-1" source="WIyWlLk6GJQsqaUBKTNV-3" target="lY5XYDzgjmcaLU_27s-w-4">
          <mxGeometry relative="1" as="geometry" />
        </mxCell>
        <mxCell id="lY5XYDzgjmcaLU_27s-w-32" style="edgeStyle=orthogonalEdgeStyle;rounded=0;orthogonalLoop=1;jettySize=auto;html=1;entryX=0.5;entryY=0;entryDx=0;entryDy=0;" edge="1" parent="WIyWlLk6GJQsqaUBKTNV-1" source="WIyWlLk6GJQsqaUBKTNV-3" target="lY5XYDzgjmcaLU_27s-w-9">
          <mxGeometry relative="1" as="geometry" />
        </mxCell>
        <mxCell id="WIyWlLk6GJQsqaUBKTNV-3" value="XxlJob触发组装任务" style="rounded=1;whiteSpace=wrap;html=1;fontSize=12;glass=0;strokeWidth=1;shadow=0;" parent="WIyWlLk6GJQsqaUBKTNV-1" vertex="1">
          <mxGeometry x="160" y="80" width="120" height="40" as="geometry" />
        </mxCell>
        <mxCell id="lY5XYDzgjmcaLU_27s-w-7" style="edgeStyle=orthogonalEdgeStyle;rounded=0;orthogonalLoop=1;jettySize=auto;html=1;exitX=1;exitY=0.5;exitDx=0;exitDy=0;entryX=0;entryY=0.5;entryDx=0;entryDy=0;" edge="1" parent="WIyWlLk6GJQsqaUBKTNV-1" source="lY5XYDzgjmcaLU_27s-w-4" target="lY5XYDzgjmcaLU_27s-w-5">
          <mxGeometry relative="1" as="geometry">
            <Array as="points">
              <mxPoint x="210" y="225" />
              <mxPoint x="210" y="175" />
              <mxPoint x="470" y="175" />
              <mxPoint x="470" y="340" />
            </Array>
          </mxGeometry>
        </mxCell>
        <mxCell id="lY5XYDzgjmcaLU_27s-w-8" value="不满足条件的资源" style="edgeLabel;html=1;align=center;verticalAlign=middle;resizable=0;points=[];" vertex="1" connectable="0" parent="lY5XYDzgjmcaLU_27s-w-7">
          <mxGeometry x="-0.5957" y="3" relative="1" as="geometry">
            <mxPoint x="82" as="offset" />
          </mxGeometry>
        </mxCell>
        <mxCell id="lY5XYDzgjmcaLU_27s-w-33" style="edgeStyle=orthogonalEdgeStyle;rounded=0;orthogonalLoop=1;jettySize=auto;html=1;exitX=0.5;exitY=1;exitDx=0;exitDy=0;entryX=0.5;entryY=0;entryDx=0;entryDy=0;" edge="1" parent="WIyWlLk6GJQsqaUBKTNV-1" source="lY5XYDzgjmcaLU_27s-w-4" target="lY5XYDzgjmcaLU_27s-w-12">
          <mxGeometry relative="1" as="geometry">
            <Array as="points">
              <mxPoint x="150" y="280" />
              <mxPoint x="220" y="280" />
            </Array>
          </mxGeometry>
        </mxCell>
        <mxCell id="lY5XYDzgjmcaLU_27s-w-4" value="组装料架资源" style="rounded=0;whiteSpace=wrap;html=1;" vertex="1" parent="WIyWlLk6GJQsqaUBKTNV-1">
          <mxGeometry x="110" y="210" width="80" height="30" as="geometry" />
        </mxCell>
        <mxCell id="lY5XYDzgjmcaLU_27s-w-29" style="edgeStyle=orthogonalEdgeStyle;rounded=0;orthogonalLoop=1;jettySize=auto;html=1;" edge="1" parent="WIyWlLk6GJQsqaUBKTNV-1" source="lY5XYDzgjmcaLU_27s-w-5" target="lY5XYDzgjmcaLU_27s-w-28">
          <mxGeometry relative="1" as="geometry" />
        </mxCell>
        <mxCell id="lY5XYDzgjmcaLU_27s-w-5" value="未组装成的资源集合" style="rounded=0;whiteSpace=wrap;html=1;" vertex="1" parent="WIyWlLk6GJQsqaUBKTNV-1">
          <mxGeometry x="560" y="310" width="120" height="60" as="geometry" />
        </mxCell>
        <mxCell id="lY5XYDzgjmcaLU_27s-w-10" style="edgeStyle=orthogonalEdgeStyle;rounded=0;orthogonalLoop=1;jettySize=auto;html=1;exitX=1;exitY=0.5;exitDx=0;exitDy=0;entryX=0;entryY=0.5;entryDx=0;entryDy=0;" edge="1" parent="WIyWlLk6GJQsqaUBKTNV-1" source="lY5XYDzgjmcaLU_27s-w-9" target="lY5XYDzgjmcaLU_27s-w-5">
          <mxGeometry relative="1" as="geometry" />
        </mxCell>
        <mxCell id="lY5XYDzgjmcaLU_27s-w-11" value="不满足条件的资源" style="edgeLabel;html=1;align=center;verticalAlign=middle;resizable=0;points=[];" vertex="1" connectable="0" parent="lY5XYDzgjmcaLU_27s-w-10">
          <mxGeometry x="-0.7086" y="-3" relative="1" as="geometry">
            <mxPoint x="11" y="-8" as="offset" />
          </mxGeometry>
        </mxCell>
        <mxCell id="lY5XYDzgjmcaLU_27s-w-35" style="edgeStyle=orthogonalEdgeStyle;rounded=0;orthogonalLoop=1;jettySize=auto;html=1;entryX=0.5;entryY=0;entryDx=0;entryDy=0;" edge="1" parent="WIyWlLk6GJQsqaUBKTNV-1" source="lY5XYDzgjmcaLU_27s-w-9" target="lY5XYDzgjmcaLU_27s-w-12">
          <mxGeometry relative="1" as="geometry">
            <Array as="points">
              <mxPoint x="290" y="280" />
              <mxPoint x="220" y="280" />
            </Array>
          </mxGeometry>
        </mxCell>
        <mxCell id="lY5XYDzgjmcaLU_27s-w-9" value="组装工作位资源" style="rounded=0;whiteSpace=wrap;html=1;" vertex="1" parent="WIyWlLk6GJQsqaUBKTNV-1">
          <mxGeometry x="240" y="210" width="100" height="30" as="geometry" />
        </mxCell>
        <mxCell id="lY5XYDzgjmcaLU_27s-w-13" style="edgeStyle=orthogonalEdgeStyle;rounded=0;orthogonalLoop=1;jettySize=auto;html=1;exitX=1;exitY=0.5;exitDx=0;exitDy=0;" edge="1" parent="WIyWlLk6GJQsqaUBKTNV-1" source="lY5XYDzgjmcaLU_27s-w-12" target="lY5XYDzgjmcaLU_27s-w-5">
          <mxGeometry relative="1" as="geometry" />
        </mxCell>
        <mxCell id="lY5XYDzgjmcaLU_27s-w-14" value="记录不满足的原因" style="edgeLabel;html=1;align=center;verticalAlign=middle;resizable=0;points=[];" vertex="1" connectable="0" parent="lY5XYDzgjmcaLU_27s-w-13">
          <mxGeometry x="-0.3103" y="-1" relative="1" as="geometry">
            <mxPoint x="-30" y="-1" as="offset" />
          </mxGeometry>
        </mxCell>
        <mxCell id="lY5XYDzgjmcaLU_27s-w-17" style="edgeStyle=orthogonalEdgeStyle;rounded=0;orthogonalLoop=1;jettySize=auto;html=1;entryX=0.5;entryY=0;entryDx=0;entryDy=0;" edge="1" parent="WIyWlLk6GJQsqaUBKTNV-1" source="lY5XYDzgjmcaLU_27s-w-12" target="lY5XYDzgjmcaLU_27s-w-15">
          <mxGeometry relative="1" as="geometry" />
        </mxCell>
        <mxCell id="lY5XYDzgjmcaLU_27s-w-12" value="组装策略1" style="rounded=0;whiteSpace=wrap;html=1;" vertex="1" parent="WIyWlLk6GJQsqaUBKTNV-1">
          <mxGeometry x="170" y="325" width="100" height="30" as="geometry" />
        </mxCell>
        <mxCell id="lY5XYDzgjmcaLU_27s-w-20" style="edgeStyle=orthogonalEdgeStyle;rounded=0;orthogonalLoop=1;jettySize=auto;html=1;entryX=0;entryY=0.5;entryDx=0;entryDy=0;" edge="1" parent="WIyWlLk6GJQsqaUBKTNV-1" source="lY5XYDzgjmcaLU_27s-w-15" target="lY5XYDzgjmcaLU_27s-w-5">
          <mxGeometry relative="1" as="geometry" />
        </mxCell>
        <mxCell id="lY5XYDzgjmcaLU_27s-w-24" value="记录不满足的原因" style="edgeLabel;html=1;align=center;verticalAlign=middle;resizable=0;points=[];" vertex="1" connectable="0" parent="lY5XYDzgjmcaLU_27s-w-20">
          <mxGeometry x="-0.6958" y="2" relative="1" as="geometry">
            <mxPoint x="16" y="2" as="offset" />
          </mxGeometry>
        </mxCell>
        <mxCell id="lY5XYDzgjmcaLU_27s-w-15" value="组装策略2" style="rounded=0;whiteSpace=wrap;html=1;" vertex="1" parent="WIyWlLk6GJQsqaUBKTNV-1">
          <mxGeometry x="170" y="390" width="100" height="30" as="geometry" />
        </mxCell>
        <mxCell id="lY5XYDzgjmcaLU_27s-w-21" style="edgeStyle=orthogonalEdgeStyle;rounded=0;orthogonalLoop=1;jettySize=auto;html=1;entryX=0;entryY=0.5;entryDx=0;entryDy=0;" edge="1" parent="WIyWlLk6GJQsqaUBKTNV-1" source="lY5XYDzgjmcaLU_27s-w-16" target="lY5XYDzgjmcaLU_27s-w-5">
          <mxGeometry relative="1" as="geometry" />
        </mxCell>
        <mxCell id="lY5XYDzgjmcaLU_27s-w-25" value="记录不满足的原因" style="edgeLabel;html=1;align=center;verticalAlign=middle;resizable=0;points=[];" vertex="1" connectable="0" parent="lY5XYDzgjmcaLU_27s-w-21">
          <mxGeometry x="-0.7346" relative="1" as="geometry">
            <mxPoint as="offset" />
          </mxGeometry>
        </mxCell>
        <mxCell id="lY5XYDzgjmcaLU_27s-w-16" value="组装策略n" style="rounded=0;whiteSpace=wrap;html=1;" vertex="1" parent="WIyWlLk6GJQsqaUBKTNV-1">
          <mxGeometry x="170" y="555" width="100" height="30" as="geometry" />
        </mxCell>
        <mxCell id="lY5XYDzgjmcaLU_27s-w-23" value="" style="endArrow=none;dashed=1;html=1;dashPattern=1 3;strokeWidth=2;rounded=0;exitX=0.5;exitY=0;exitDx=0;exitDy=0;entryX=0.5;entryY=1;entryDx=0;entryDy=0;" edge="1" parent="WIyWlLk6GJQsqaUBKTNV-1" source="lY5XYDzgjmcaLU_27s-w-16" target="lY5XYDzgjmcaLU_27s-w-15">
          <mxGeometry width="50" height="50" relative="1" as="geometry">
            <mxPoint x="170" y="470" as="sourcePoint" />
            <mxPoint x="230" y="440" as="targetPoint" />
          </mxGeometry>
        </mxCell>
        <mxCell id="lY5XYDzgjmcaLU_27s-w-27" value="结束" style="ellipse;whiteSpace=wrap;html=1;" vertex="1" parent="WIyWlLk6GJQsqaUBKTNV-1">
          <mxGeometry x="580" y="580" width="80" height="50" as="geometry" />
        </mxCell>
        <mxCell id="lY5XYDzgjmcaLU_27s-w-30" style="edgeStyle=orthogonalEdgeStyle;rounded=0;orthogonalLoop=1;jettySize=auto;html=1;entryX=0.5;entryY=0;entryDx=0;entryDy=0;" edge="1" parent="WIyWlLk6GJQsqaUBKTNV-1" source="lY5XYDzgjmcaLU_27s-w-28" target="lY5XYDzgjmcaLU_27s-w-27">
          <mxGeometry relative="1" as="geometry" />
        </mxCell>
        <mxCell id="lY5XYDzgjmcaLU_27s-w-28" value="存入数据库" style="rounded=0;whiteSpace=wrap;html=1;" vertex="1" parent="WIyWlLk6GJQsqaUBKTNV-1">
          <mxGeometry x="560" y="440" width="120" height="60" as="geometry" />
        </mxCell>
      </root>
    </mxGraphModel>
  </diagram>
</mxfile>
